<?xml version="1.0" standalone="no"?>
<!DOCTYPE svg PUBLIC "-//W3C//DTD SVG 20010904//EN"
 "http://www.w3.org/TR/2001/REC-SVG-20010904/DTD/svg10.dtd">
<svg version="1.0" xmlns="http://www.w3.org/2000/svg"
 width="16.000000pt" height="16.000000pt" viewBox="0 0 16.000000 16.000000"
 preserveAspectRatio="xMidYMid meet">
<metadata>
Created by potrace 1.11, written by Peter Selinger 2001-2013
</metadata>
<g transform="translate(0.000000,16.000000) scale(0.006250,-0.006250)"
fill="#000000" stroke="none">
<path d="M215 2543 c-97 -40 -163 -106 -199 -203 -15 -41 -16 -131 -14 -1075
l3 -1030 25 -50 c31 -64 91 -124 155 -155 l50 -25 1045 0 1045 0 50 25 c64 31
124 91 155 155 l25 50 0 1045 0 1045 -25 50 c-31 64 -91 124 -155 155 l-50 25
-1035 2 c-936 2 -1039 1 -1075 -14z m1557 -749 l468 -156 -6 -41 c-4 -23 -9
-45 -13 -48 -10 -10 -905 -312 -921 -311 -27 2 -429 140 -462 159 -17 10 -31
23 -31 28 0 16 68 51 243 121 191 77 260 110 260 125 0 17 -68 -1 -220 -58
-249 -95 -388 -161 -417 -200 -49 -64 -59 -155 -25 -220 16 -29 15 -59 -3
-108 -9 -26 -14 -82 -15 -166 0 -155 -15 -211 -70 -268 -22 -22 -51 -43 -65
-47 -30 -7 -101 17 -139 47 -37 29 -33 62 19 135 52 73 78 128 95 207 13 54
12 57 -14 87 -34 41 -33 74 4 143 16 31 30 63 30 71 0 8 12 52 26 97 29 93 34
85 -68 124 -76 30 -83 36 -92 87 l-7 36 463 155 c255 86 470 156 478 156 8 1
225 -69 482 -155z m-778 -521 c306 -100 292 -100 586 -6 252 81 318 99 328 89
12 -13 7 -269 -6 -308 -26 -72 -138 -146 -279 -182 -147 -38 -448 -44 -601
-11 -138 29 -254 81 -285 128 -13 20 -13 30 -2 72 15 59 6 102 -29 154 -27 39
-33 82 -16 126 13 33 4 35 304 -62z"/>
</g>
</svg>
